<?xml version="1.0" encoding="UTF-8"?>
<svg id="Layer_1" data-name="Layer 1" xmlns="http://www.w3.org/2000/svg" viewBox="0 0 634.2 126.36">
  <defs>
    <style>
      .cls-1 {
        fill: #d9ac25;
      }

      .cls-1, .cls-2 {
        stroke-width: 0px;
      }

      .cls-2 {
        fill: #a67f68;
      }
    </style>
  </defs>
  <path class="cls-1" d="M49.2,96.96h-31.92c2.08-1.12,3.82-2.88,5.22-5.28,1.4-2.4,2.1-5.72,2.1-9.96V17.64h-10.92c-1.84,0-3.58.42-5.22,1.26-1.64.84-3.1,1.8-4.38,2.88-1.28,1.08-2.28,2.02-3,2.82l-1.08,1.2L2.28,4.44h61.8l2.28,21.36-1.08-1.2c-.72-.8-1.72-1.76-3-2.88-3.28-2.72-6.48-4.08-9.6-4.08h-10.8v64.08c0,7.68,2.44,12.76,7.32,15.24Z"/>
  <path class="cls-1" d="M100.56,126.36c-2.16,0-4.78-.14-7.86-.42-3.08-.28-6.7-1.22-10.86-2.82l-2.52-19.44,2.64,1.92c1.68,1.36,3.96,2.7,6.84,4.02,2.88,1.32,6,1.98,9.36,1.98s6.38-.54,9.3-1.62c2.92-1.08,5.38-2.7,7.38-4.86,3.28-3.92,4.92-8.92,4.92-15v-.84c-1.44,1.84-2.74,3.32-3.9,4.44-1.16,1.12-3.42,2.36-6.78,3.72s-7.36,2.04-12,2.04c-11.12,0-17.92-4-20.4-12-.88-2.8-1.44-5.62-1.68-8.46-.24-2.84-.36-6.46-.36-10.86v-26.88c-.56-7.28-2.8-11.88-6.72-13.8h23.4c0,27.12.04,41.52.12,43.2.4,5.2,1.32,8.84,2.76,10.92,2,3.04,5.28,4.56,9.84,4.56,7.76,0,12.8-4.04,15.12-12.12V27.48h24.6c-4.88,2.64-7.32,7.76-7.32,15.36v46.08c-.08,11.28-3.32,20.34-9.72,27.18-6.4,6.84-15.12,10.26-26.16,10.26Z"/>
  <path class="cls-1" d="M178.92,120.24h-31.92c4.88-2.48,7.32-7.56,7.32-15.24v-55.32c0-5.6-.68-9.32-2.04-11.16-1.36-1.84-3.12-3.2-5.28-4.08l24.6-9.48v7.2c5.68-4.8,12.48-7.2,20.4-7.2,9.36,0,17.16,3.32,23.4,9.96,6.24,6.64,9.36,15.64,9.36,27s-3.12,20.36-9.36,27c-6.24,6.64-14.04,9.96-23.4,9.96-7.92,0-14.72-2.4-20.4-7.2v13.32c0,7.68,2.44,12.76,7.32,15.24ZM187.32,85.44c5.76,0,10.48-2.14,14.16-6.42,3.68-4.28,5.52-9.98,5.52-17.1s-1.84-12.8-5.52-17.04c-3.68-4.24-8.4-6.36-14.16-6.36-6.8,0-12.04,2.76-15.72,8.28v30.24c3.68,5.6,8.92,8.4,15.72,8.4Z"/>
  <path class="cls-1" d="M269.16,98.88c-11.44,0-20.48-3.28-27.12-9.84-6.64-6.56-9.96-15.48-9.96-26.76s3.2-20.12,9.6-27c6.4-6.88,14.92-10.32,25.56-10.32s19.12,3.52,24.72,10.56c5.2,6.48,7.8,16.36,7.8,29.64v3.48h-50.88c.64,3.68,2.28,7.12,4.92,10.32,3.36,4.16,8.8,6.24,16.32,6.24,4.48,0,8.56-.68,12.24-2.04,3.68-1.36,6.64-2.72,8.88-4.08l3.24-2.04-.48,16.08c-9.2,3.84-17.48,5.76-24.84,5.76ZM284.52,55.08c-.24-1.68-.64-3.32-1.2-4.92-.56-1.6-1.46-3.34-2.7-5.22-1.24-1.88-3.06-3.4-5.46-4.56-2.4-1.16-5.2-1.74-8.4-1.74-5.68,0-10.06,1.7-13.14,5.1-3.08,3.4-4.82,7.18-5.22,11.34h36.12Z"/>
  <path class="cls-2" d="M372.48,102.72l-17.64-36.96-17.52,36.96-31.68-66.72c-2.4-4.4-5.36-7.24-8.88-8.52h29.16c-2,.8-3,2.4-3,4.8,0,1.28.28,2.76.84,4.44l13.44,30.96,8.88-20.4-5.4-11.28c-2.32-4.4-5.24-7.24-8.76-8.52h29.04c-1.92.8-2.88,2.36-2.88,4.68,0,1.28.28,2.8.84,4.56l13.44,30.96,12.96-29.88c.96-2.16,1.44-3.96,1.44-5.4,0-.48-.12-1.24-.36-2.28-.24-1.04-1.12-1.92-2.64-2.64h29.16c-3.6,1.28-6.6,4.2-9,8.76l-31.44,66.48Z"/>
  <path class="cls-2" d="M444.84,96.96h-31.8c4.88-2.48,7.32-7.56,7.32-15.24v-32.04c0-5.6-.68-9.32-2.04-11.16-1.36-1.84-3.12-3.2-5.28-4.08l24.6-9.48v9.96c1.36-1.76,2.62-3.18,3.78-4.26,1.16-1.08,3.42-2.3,6.78-3.66,3.36-1.36,7.36-2.04,12-2.04,3.92,0,7.24.52,9.96,1.56l-6.96,16.56-.12-.12c-.56-1.12-1.74-2.18-3.54-3.18-1.8-1-3.9-1.5-6.3-1.5-8.24,0-13.44,4.56-15.6,13.68v32.04c.8,6.8,3.2,11.12,7.2,12.96Z"/>
  <path class="cls-2" d="M503.76,96.96h-31.8c3.92-1.76,6.32-5.8,7.2-12.12v-35.16c0-5.6-.68-9.32-2.04-11.16-1.36-1.84-3.12-3.2-5.28-4.08l24.6-9.48v56.76c0,7.68,2.44,12.76,7.32,15.24ZM487.2,20.64c-2.64,0-5.08-1-7.32-3-2-2.24-3-4.68-3-7.32s1-5.08,3-7.32c2.24-2,4.68-3,7.32-3s5.04,1,7.2,3c2.08,2.24,3.12,4.68,3.12,7.32s-1.04,5.08-3.12,7.32c-2.16,2-4.56,3-7.2,3Z"/>
  <path class="cls-2" d="M544.08,99.48c-8.8,0-15.76-2.64-20.88-7.92-5.04-5.52-7.56-13.24-7.56-23.16v-29.04h-10.8l3.24-11.28h7.56v-10.8l17.28-11.28v22.08h18.84l3.24,11.28h-22.08v29.04c0,4.8.7,8.36,2.1,10.68,1.4,2.32,3.1,3.82,5.1,4.5,2,.68,3.96,1.02,5.88,1.02,2.64,0,5.1-.5,7.38-1.5,2.28-1,4.1-2.02,5.46-3.06l2.16-1.56-2.04,18.48c-3.28,1.2-6.16,1.92-8.64,2.16-2.48.24-4.56.36-6.24.36Z"/>
  <path class="cls-2" d="M603.6,98.88c-11.44,0-20.48-3.28-27.12-9.84-6.64-6.56-9.96-15.48-9.96-26.76s3.2-20.12,9.6-27c6.4-6.88,14.92-10.32,25.56-10.32s19.12,3.52,24.72,10.56c5.2,6.48,7.8,16.36,7.8,29.64v3.48h-50.88c.64,3.68,2.28,7.12,4.92,10.32,3.36,4.16,8.8,6.24,16.32,6.24,4.48,0,8.56-.68,12.24-2.04,3.68-1.36,6.64-2.72,8.88-4.08l3.24-2.04-.48,16.08c-9.2,3.84-17.48,5.76-24.84,5.76ZM618.96,55.08c-.24-1.68-.64-3.32-1.2-4.92-.56-1.6-1.46-3.34-2.7-5.22-1.24-1.88-3.06-3.4-5.46-4.56-2.4-1.16-5.2-1.74-8.4-1.74-5.68,0-10.06,1.7-13.14,5.1-3.08,3.4-4.82,7.18-5.22,11.34h36.12Z"/>
</svg>